# xmcd CD database file
#
# Track frame offsets:
#	150
#	102392
#	117990
#	129930
#	157627
#	202847
#	233292
#	257205
#
# Disc length: 3639 seconds
#
# Revision: 1
# Processed by: cddbd v1.5.2PL0 Copyright (c) Steve Scherf et al.
# Submitted via: CDex 1.51
#
DISCID=560e3508
DTITLE=Art Ensemble of Chicago - The Complete Live in Japan - April 22, 1984 Tokyo - Disc 2
DYEAR=1984
DGENRE=Jazz
TTITLE0=Ornedaruth
TTITLE1=The Beginning
TTITLE2=Waltz
TTITLE3=Building The Mid
TTITLE4=Ol'Time Southside Street Dance
TTITLE5=Zero
TTITLE6=Funky Aeco
TTITLE7=Odwalla - The Theme
EXTD=YEAR: 1984
EXTT0=
EXTT1=
EXTT2=
EXTT3=
EXTT4=
EXTT5=
EXTT6=
EXTT7=
PLAYORDER=
